<svg width="43" height="43" viewBox="0 0 43 43" fill="none" xmlns="http://www.w3.org/2000/svg">
<path d="M0 21.5C0 33.3736 9.62642 43 21.5 43C33.3736 43 43 33.3736 43 21.5C43 9.62642 33.3736 0 21.5 0C9.62642 0 0 9.62642 0 21.5ZM21.9806 12.0565C22.1349 12.2095 22.2575 12.3914 22.3414 12.5917C22.4253 12.7921 22.469 13.007 22.4698 13.2242C22.4707 13.4414 22.4288 13.6567 22.3464 13.8577C22.2641 14.0587 22.143 14.2415 21.99 14.3957L16.5819 19.8462H30.3894C30.8281 19.8462 31.2487 20.0204 31.5589 20.3306C31.869 20.6407 32.0433 21.0614 32.0433 21.5C32.0433 21.9386 31.869 22.3593 31.5589 22.6694C31.2487 22.9796 30.8281 23.1538 30.3894 23.1538H16.5819L21.99 28.6043C22.1429 28.7586 22.264 28.9416 22.3463 29.1427C22.4286 29.3439 22.4704 29.5592 22.4695 29.7765C22.4685 29.9938 22.4247 30.2088 22.3407 30.4092C22.2566 30.6096 22.134 30.7915 21.9796 30.9445C21.8253 31.0975 21.6423 31.2186 21.4412 31.3008C21.2401 31.3831 21.0247 31.425 20.8074 31.424C20.5901 31.423 20.3751 31.3793 20.1747 31.2952C19.9743 31.2112 19.7924 31.0885 19.6394 30.9342L11.4332 22.6649C11.1258 22.3551 10.9533 21.9364 10.9533 21.5C10.9533 21.0636 11.1258 20.6449 11.4332 20.3351L19.6394 12.0658C19.7924 11.9113 19.9744 11.7885 20.1749 11.7043C20.3755 11.6202 20.5906 11.5765 20.8081 11.5756C21.0256 11.5748 21.2411 11.6168 21.4423 11.6993C21.6435 11.7818 21.8264 11.9032 21.9806 12.0565Z" fill="#FF5959"/>
</svg>
