<svg width="20" height="23" viewBox="0 0 20 23" fill="none" xmlns="http://www.w3.org/2000/svg">
<path d="M0.556818 11.6364C0.556818 9.48864 0.835227 7.5142 1.39205 5.71307C1.95455 3.90625 2.75568 2.24432 3.79545 0.727272H5.56818C5.15909 1.28977 4.77557 1.98295 4.41761 2.80682C4.06534 3.625 3.75568 4.52557 3.48864 5.50852C3.22159 6.4858 3.01136 7.49716 2.85795 8.54261C2.71023 9.58807 2.63636 10.6193 2.63636 11.6364C2.63636 12.9886 2.76705 14.3608 3.02841 15.7528C3.28977 17.1449 3.64205 18.4375 4.08523 19.6307C4.52841 20.8239 5.02273 21.7955 5.56818 22.5455H3.79545C2.75568 21.0284 1.95455 19.3693 1.39205 17.5682C0.835227 15.7614 0.556818 13.7841 0.556818 11.6364ZM19.5817 11.6364C19.5817 13.7841 19.3004 15.7614 18.7379 17.5682C18.1811 19.3693 17.3828 21.0284 16.343 22.5455H14.5703C14.9794 21.983 15.3601 21.2898 15.7124 20.4659C16.0703 19.6477 16.3828 18.75 16.6499 17.7727C16.9169 16.7898 17.1243 15.7756 17.272 14.7301C17.4254 13.679 17.5021 12.6477 17.5021 11.6364C17.5021 10.2841 17.3714 8.91193 17.1101 7.51989C16.8487 6.12784 16.4964 4.83523 16.0533 3.64204C15.6101 2.44886 15.1158 1.47727 14.5703 0.727272H16.343C17.3828 2.24432 18.1811 3.90625 18.7379 5.71307C19.3004 7.5142 19.5817 9.48864 19.5817 11.6364Z" fill="#66FF7F"/>
</svg>
