<svg width="23" height="28" viewBox="0 0 23 28" fill="none" xmlns="http://www.w3.org/2000/svg">
<path d="M22.2386 9H19.0682C18.8807 8.08807 18.5526 7.28693 18.0838 6.59659C17.6236 5.90625 17.0611 5.3267 16.3963 4.85795C15.7401 4.38068 15.0114 4.02273 14.2102 3.78409C13.4091 3.54545 12.5739 3.42614 11.7045 3.42614C10.1193 3.42614 8.68324 3.8267 7.39631 4.62784C6.1179 5.42898 5.09943 6.60938 4.34091 8.16903C3.59091 9.72869 3.21591 11.642 3.21591 13.9091C3.21591 16.1761 3.59091 18.0895 4.34091 19.6491C5.09943 21.2088 6.1179 22.3892 7.39631 23.1903C8.68324 23.9915 10.1193 24.392 11.7045 24.392C12.5739 24.392 13.4091 24.2727 14.2102 24.0341C15.0114 23.7955 15.7401 23.4418 16.3963 22.973C17.0611 22.4957 17.6236 21.9119 18.0838 21.2216C18.5526 20.5227 18.8807 19.7216 19.0682 18.8182H22.2386C22 20.1562 21.5653 21.3537 20.9347 22.4105C20.304 23.4673 19.5199 24.3665 18.5824 25.108C17.6449 25.8409 16.5923 26.3991 15.4247 26.7827C14.2656 27.1662 13.0256 27.358 11.7045 27.358C9.47159 27.358 7.4858 26.8125 5.74716 25.7216C4.00852 24.6307 2.64063 23.0795 1.64347 21.0682C0.646307 19.0568 0.147727 16.6705 0.147727 13.9091C0.147727 11.1477 0.646307 8.76136 1.64347 6.75C2.64063 4.73864 4.00852 3.1875 5.74716 2.09659C7.4858 1.00568 9.47159 0.460226 11.7045 0.460226C13.0256 0.460226 14.2656 0.651988 15.4247 1.03551C16.5923 1.41903 17.6449 1.98153 18.5824 2.72301C19.5199 3.45596 20.304 4.35085 20.9347 5.40767C21.5653 6.45596 22 7.65341 22.2386 9Z" fill="#343434"/>
</svg>
