<svg width="48" height="44" viewBox="0 0 48 44" fill="none" xmlns="http://www.w3.org/2000/svg">
<path d="M30.6258 1.2219e-06C30.8019 1.2219e-06 30.9486 0.0760012 31.066 0.228001C31.1834 0.380001 31.2421 0.557335 31.2421 0.760001C31.2421 0.886668 29.5496 6.992 26.1647 19.076C22.7797 31.16 21.0285 37.3413 20.9111 37.62C20.7742 37.8733 20.6079 38 20.4122 38C20.2752 38 20.148 37.9367 20.0306 37.81C19.9133 37.6833 19.8546 37.506 19.8546 37.278C19.8546 37.0247 21.5568 30.8433 24.9614 18.734C28.3659 6.62467 30.0975 0.506668 30.1562 0.380001C30.2345 0.126668 30.391 1.2219e-06 30.6258 1.2219e-06Z" fill="#66FF7F"/>
<path d="M4.45455 1.54545L8.63636 8.68182L12.8182 1.54545H15.9091L10.2727 10.2727L15.9091 19H12.8182L8.63636 12.2273L4.45455 19H1.36364L6.90909 10.2727L1.36364 1.54545H4.45455Z" fill="#66FF7F"/>
<path d="M35.1818 43.5455C34.7273 43.5455 34.322 43.5076 33.9659 43.4318C33.6098 43.3636 33.3636 43.2955 33.2273 43.2273L33.9091 40.8636C34.5606 41.0303 35.1364 41.0909 35.6364 41.0455C36.1364 41 36.5795 40.7765 36.9659 40.375C37.3598 39.9811 37.7197 39.3409 38.0455 38.4545L38.5455 37.0909L32.0909 19.5455H35L39.8182 33.4545H40L44.8182 19.5455H47.7273L40.3182 39.5455C39.9848 40.447 39.572 41.1932 39.0795 41.7841C38.5871 42.3826 38.0152 42.8258 37.3636 43.1136C36.7197 43.4015 35.9924 43.5455 35.1818 43.5455Z" fill="#66FF7F"/>
</svg>
