<svg width="37" height="18" viewBox="0 0 37 18" fill="none" xmlns="http://www.w3.org/2000/svg">
<path d="M0.938965 0.236357H3.46169L9.39351 14.725H9.59806L15.5299 0.236357H18.0526V17.6909H16.0753V4.42954H15.9049L10.4503 17.6909H8.54124L3.08669 4.42954H2.91624V17.6909H0.938965V0.236357ZM36.336 5.6909H34.2223C34.0973 5.08295 33.8786 4.54886 33.5661 4.08863C33.2593 3.6284 32.8843 3.24204 32.4411 2.92954C32.0036 2.61136 31.5178 2.37272 30.9837 2.21363C30.4496 2.05454 29.8928 1.97499 29.3133 1.97499C28.2564 1.97499 27.2991 2.24204 26.4411 2.77613C25.5888 3.31022 24.9098 4.09715 24.4042 5.13693C23.9042 6.1767 23.6542 7.45227 23.6542 8.96363C23.6542 10.475 23.9042 11.7506 24.4042 12.7903C24.9098 13.8301 25.5888 14.617 26.4411 15.1511C27.2991 15.6852 28.2564 15.9523 29.3133 15.9523C29.8928 15.9523 30.4496 15.8727 30.9837 15.7136C31.5178 15.5545 32.0036 15.3187 32.4411 15.0062C32.8843 14.6881 33.2593 14.2989 33.5661 13.8386C33.8786 13.3727 34.0973 12.8386 34.2223 12.2364H36.336C36.1769 13.1284 35.8871 13.9267 35.4667 14.6312C35.0462 15.3358 34.5235 15.9352 33.8985 16.4295C33.2735 16.9182 32.5718 17.2903 31.7934 17.546C31.0206 17.8017 30.1939 17.9295 29.3133 17.9295C27.8246 17.9295 26.5008 17.5659 25.3417 16.8386C24.1826 16.1114 23.2706 15.0773 22.6059 13.7364C21.9411 12.3954 21.6087 10.8045 21.6087 8.96363C21.6087 7.12272 21.9411 5.53181 22.6059 4.1909C23.2706 2.84999 24.1826 1.8159 25.3417 1.08863C26.5008 0.361357 27.8246 -0.00227976 29.3133 -0.00227976C30.1939 -0.00227976 31.0206 0.125561 31.7934 0.381243C32.5718 0.636925 33.2735 1.01193 33.8985 1.50624C34.5235 1.99488 35.0462 2.59147 35.4667 3.29602C35.8871 3.99488 36.1769 4.79317 36.336 5.6909Z" fill="white"/>
</svg>
