<svg width="35" height="18" viewBox="0 0 35 18" fill="none" xmlns="http://www.w3.org/2000/svg">
<path d="M0.877869 0.236357H3.4006L9.33242 14.725H9.53696L15.4688 0.236357H17.9915V17.6909H16.0142V4.42954H15.8438L10.3892 17.6909H8.48014L3.0256 4.42954H2.85514V17.6909H0.877869V0.236357ZM22.2294 17.6909V0.236357H28.1272C29.4908 0.236357 30.6101 0.469311 31.4851 0.93522C32.3601 1.39545 33.0078 2.02897 33.4283 2.83579C33.8488 3.64261 34.059 4.56022 34.059 5.58863C34.059 6.61704 33.8488 7.52897 33.4283 8.32442C33.0078 9.11988 32.363 9.74488 31.4936 10.1994C30.6243 10.6483 29.5135 10.8727 28.1612 10.8727H23.3885V8.96363H28.0931C29.0249 8.96363 29.7749 8.82727 30.3431 8.55454C30.9169 8.28181 31.3317 7.89545 31.5874 7.39545C31.8487 6.88977 31.9794 6.28749 31.9794 5.58863C31.9794 4.88977 31.8487 4.27897 31.5874 3.75624C31.326 3.23352 30.9084 2.83011 30.3345 2.54602C29.7607 2.25624 29.0022 2.11136 28.059 2.11136H24.3431V17.6909H22.2294ZM30.4453 9.84999L34.7408 17.6909H32.2863L28.059 9.84999H30.4453Z" fill="white"/>
</svg>
