<svg width="34" height="18" viewBox="0 0 34 18" fill="none" xmlns="http://www.w3.org/2000/svg">
<path d="M0.553956 0.236357H3.07668L9.0085 14.725H9.21305L15.1449 0.236357H17.6676V17.6909H15.6903V4.42954H15.5199L10.0653 17.6909H8.15623L2.70168 4.42954H2.53123V17.6909H0.553956V0.236357ZM31.451 4.59999C31.3487 3.73636 30.9339 3.0659 30.2067 2.58863C29.4794 2.11136 28.5873 1.87272 27.5305 1.87272C26.7578 1.87272 26.0817 1.99772 25.5021 2.24772C24.9282 2.49772 24.4794 2.84147 24.1555 3.27897C23.8373 3.71647 23.6782 4.21363 23.6782 4.77045C23.6782 5.23636 23.789 5.63692 24.0106 5.97215C24.2379 6.3017 24.5277 6.57727 24.8799 6.79886C25.2322 7.01477 25.6015 7.19374 25.9879 7.33579C26.3743 7.47215 26.7294 7.58295 27.0532 7.66817L28.826 8.14545C29.2805 8.26477 29.7862 8.42954 30.343 8.63977C30.9055 8.84999 31.4425 9.13692 31.9538 9.50056C32.4709 9.85852 32.897 10.3187 33.2322 10.8812C33.5675 11.4437 33.7351 12.1341 33.7351 12.9523C33.7351 13.8954 33.4879 14.7477 32.9936 15.5091C32.505 16.2704 31.789 16.8756 30.8459 17.3244C29.9084 17.7733 28.7692 17.9977 27.4282 17.9977C26.1782 17.9977 25.0959 17.796 24.1811 17.3926C23.272 16.9892 22.5561 16.4267 22.0334 15.7051C21.5163 14.9835 21.2237 14.1454 21.1555 13.1909H23.3373C23.3942 13.85 23.6157 14.3954 24.0021 14.8273C24.3942 15.2534 24.8885 15.5716 25.4851 15.7818C26.0873 15.9864 26.7351 16.0886 27.4282 16.0886C28.2351 16.0886 28.9595 15.9579 29.6015 15.6966C30.2436 15.4295 30.7521 15.0602 31.1271 14.5886C31.5021 14.1114 31.6896 13.5545 31.6896 12.9182C31.6896 12.3386 31.5277 11.867 31.2038 11.5034C30.88 11.1398 30.4538 10.8443 29.9254 10.617C29.397 10.3898 28.826 10.1909 28.2123 10.0204L26.0646 9.40681C24.701 9.01477 23.6214 8.45511 22.826 7.72783C22.0305 7.00056 21.6328 6.04886 21.6328 4.87272C21.6328 3.89545 21.897 3.04317 22.4254 2.3159C22.9595 1.58295 23.6754 1.01477 24.5731 0.611357C25.4765 0.202266 26.4851 -0.00227976 27.5987 -0.00227976C28.7237 -0.00227976 29.7237 0.199425 30.5987 0.602834C31.4737 1.00056 32.1669 1.54602 32.6782 2.2392C33.1953 2.93238 33.468 3.71931 33.4964 4.59999H31.451Z" fill="white"/>
</svg>
