<svg width="16" height="19" viewBox="0 0 16 19" fill="none" xmlns="http://www.w3.org/2000/svg">
<path d="M8.82902 14.6892V13.7581C8.82902 13.1143 8.96122 12.5251 9.22562 11.9906C9.49577 11.4503 9.88663 11.0192 10.3982 10.6973C10.9155 10.3697 11.542 10.2059 12.2777 10.2059C13.025 10.2059 13.6515 10.3697 14.1573 10.6973C14.6631 11.0192 15.0454 11.4503 15.304 11.9906C15.5627 12.5251 15.692 13.1143 15.692 13.7581V14.6892C15.692 15.333 15.5598 15.925 15.2954 16.4653C15.0367 16.9999 14.6516 17.431 14.1401 17.7586C13.6343 18.0805 13.0135 18.2414 12.2777 18.2414C11.5305 18.2414 10.9011 18.0805 10.3896 17.7586C9.87801 17.431 9.49002 16.9999 9.22562 16.4653C8.96122 15.925 8.82902 15.333 8.82902 14.6892ZM10.5879 13.7581V14.6892C10.5879 15.2238 10.7143 15.7037 10.9672 16.1291C11.2201 16.5487 11.657 16.7585 12.2777 16.7585C12.8813 16.7585 13.3066 16.5487 13.5538 16.1291C13.8067 15.7037 13.9331 15.2238 13.9331 14.6892V13.7581C13.9331 13.2235 13.8124 12.7464 13.571 12.3268C13.3296 11.9015 12.8985 11.6888 12.2777 11.6888C11.6742 11.6888 11.2403 11.9015 10.9759 12.3268C10.7172 12.7464 10.5879 13.2235 10.5879 13.7581ZM0.0347516 4.58443V3.65328C0.0347516 3.00951 0.166953 2.42036 0.431356 1.8858C0.701506 1.3455 1.09236 0.914409 1.60392 0.592528C2.12123 0.264898 2.74775 0.101083 3.48348 0.101083C4.23071 0.101083 4.85723 0.264898 5.36304 0.592528C5.86886 0.914409 6.25109 1.3455 6.50974 1.8858C6.7684 2.42036 6.89773 3.00951 6.89773 3.65328V4.58443C6.89773 5.2282 6.76553 5.82023 6.50112 6.36053C6.24247 6.89508 5.85736 7.32618 5.3458 7.65381C4.83998 7.97569 4.21921 8.13663 3.48348 8.13663C2.73626 8.13663 2.10686 7.97569 1.5953 7.65381C1.08374 7.32618 0.695758 6.89508 0.431356 6.36053C0.166953 5.82023 0.0347516 5.2282 0.0347516 4.58443ZM1.7936 3.65328V4.58443C1.7936 5.11899 1.92006 5.59894 2.17297 6.02428C2.42587 6.44388 2.86271 6.65367 3.48348 6.65367C4.08701 6.65367 4.51235 6.44388 4.75951 6.02428C5.01242 5.59894 5.13887 5.11899 5.13887 4.58443V3.65328C5.13887 3.11872 5.01817 2.64165 4.77676 2.22205C4.53535 1.79671 4.10426 1.58404 3.48348 1.58404C2.87996 1.58404 2.44599 1.79671 2.18159 2.22205C1.92293 2.64165 1.7936 3.11872 1.7936 3.65328ZM0.690011 18L12.8295 0.342494H14.7953L2.65579 18H0.690011Z" fill="#66FF7F"/>
</svg>
