<svg width="44" height="38" viewBox="0 0 44 38" fill="none" xmlns="http://www.w3.org/2000/svg">
<path d="M30.6258 1.2219e-06C30.8019 1.2219e-06 30.9486 0.0760012 31.066 0.228001C31.1834 0.380001 31.2421 0.557335 31.2421 0.760001C31.2421 0.886668 29.5496 6.992 26.1647 19.076C22.7797 31.16 21.0285 37.3413 20.9111 37.62C20.7742 37.8733 20.6079 38 20.4122 38C20.2752 38 20.148 37.9367 20.0306 37.81C19.9133 37.6833 19.8546 37.506 19.8546 37.278C19.8546 37.0247 21.5568 30.8433 24.9614 18.734C28.3659 6.62467 30.0975 0.506668 30.1562 0.380001C30.2345 0.126668 30.391 1.2219e-06 30.6258 1.2219e-06Z" fill="white"/>
<path d="M9.27273 17.4091V2.40909H11.8182V17.4091H9.27273ZM3.04545 11.1818V8.63636H18.0455V11.1818H3.04545Z" fill="white"/>
<path d="M43.4545 25.7727V28.2727H33.2727V25.7727H43.4545Z" fill="white"/>
</svg>
