<svg width="27" height="39" viewBox="0 0 27 39" fill="none" xmlns="http://www.w3.org/2000/svg">
<path d="M19.2134 4.64298C18.8432 4.64298 18.5484 4.52543 18.3291 4.29035C18.1097 4.05526 18 3.76793 18 3.42836C18 2.50107 18.3633 1.69785 19.09 1.01871C19.8167 0.339571 20.7216 0 21.8048 0C23.0524 0 24.0945 0.365692 24.9308 1.09708C25.7672 1.82846 26.1922 2.77534 26.2059 3.93772C26.2059 4.49931 26.0688 5.03479 25.7946 5.54415C25.5204 6.0535 25.1913 6.49756 24.8074 6.87631C24.4235 7.25506 23.8751 7.7383 23.1621 8.32602C22.6685 8.73089 21.983 9.33167 21.1055 10.1284L19.8921 11.2254L21.4551 11.245C23.6077 11.245 24.7526 11.2124 24.8897 11.1471C24.9857 11.1209 25.1502 10.5398 25.3833 9.4035V9.34473H26.2059V9.4035C26.1922 9.44268 26.1031 10.0369 25.9386 11.1862C25.774 12.3356 25.6712 12.9363 25.6301 12.9886V13.0474H18V12.6751V12.44C18 12.3486 18.0411 12.2507 18.1234 12.1462C18.2057 12.0417 18.4113 11.8131 18.7404 11.4605C19.138 11.0426 19.4808 10.6769 19.7687 10.3634C19.8921 10.2328 20.1252 9.99122 20.4679 9.63859C20.8107 9.28596 21.0438 9.04434 21.1672 8.91373C21.2906 8.78313 21.4894 8.56763 21.7636 8.26724C22.0378 7.96685 22.2298 7.74483 22.3395 7.60116C22.4492 7.4575 22.6068 7.26159 22.8125 7.01344C23.0182 6.7653 23.1621 6.55633 23.2444 6.38654C23.3267 6.21676 23.4295 6.02738 23.5529 5.81842C23.6763 5.60945 23.7654 5.40048 23.8202 5.19152C23.8751 4.98255 23.9231 4.78664 23.9642 4.6038C24.0053 4.42095 24.0259 4.20545 24.0259 3.95731C24.0259 3.1345 23.7928 2.42271 23.3267 1.82193C22.8605 1.22115 22.1955 0.920759 21.3317 0.920759C20.8793 0.920759 20.4817 1.03177 20.1389 1.2538C19.7961 1.47583 19.5562 1.69132 19.4191 1.90029C19.282 2.10926 19.2134 2.23333 19.2134 2.27251C19.2134 2.28557 19.2477 2.2921 19.3162 2.2921C19.563 2.2921 19.8167 2.38353 20.0772 2.56637C20.3377 2.74922 20.4679 3.04961 20.4679 3.46754C20.4679 3.79405 20.3583 4.06832 20.1389 4.29035C19.9195 4.51237 19.611 4.62992 19.2134 4.64298Z" fill="#66FF7F"/>
<path d="M4.45455 20.5455L8.63636 27.6818L12.8182 20.5455H15.9091L10.2727 29.2727L15.9091 38H12.8182L8.63636 31.2273L4.45455 38H1.36364L6.90909 29.2727L1.36364 20.5455H4.45455Z" fill="#66FF7F"/>
</svg>
