<svg width="57" height="44" viewBox="0 0 57 44" fill="none" xmlns="http://www.w3.org/2000/svg">
<path d="M0.970213 27.2538C0.801702 27.2538 0.605106 27.1369 0.380426 26.9032C0.155745 26.6695 0.0293617 26.4651 0.0012766 26.2898C-0.0268085 26.1145 0.408511 25.6764 1.30723 24.9753C2.20596 24.2743 3.13277 23.544 4.08766 22.7845C5.04255 22.025 5.57617 21.6015 5.68851 21.5138C5.74468 21.4554 5.81489 21.4262 5.89915 21.4262H5.94128C6.10979 21.4262 6.30638 21.6745 6.53106 22.1711C6.75575 22.6677 7.51404 24.3765 8.80596 27.2976C9.33958 28.5537 9.77489 29.5614 10.1119 30.3209L13.6928 38.4269C13.7209 38.4269 15.1813 35.316 18.074 29.0941C20.9668 22.8721 23.8596 16.6064 26.7523 10.2968C29.6451 3.98729 31.1477 0.759483 31.26 0.613426C31.4285 0.204475 31.7094 0 32.1026 0C32.2992 0 32.4677 0.0876312 32.6081 0.262897C32.7485 0.438164 32.8468 0.613426 32.903 0.788692V1.05159L23.0872 22.2149L13.1872 43.5096C13.0749 43.7141 12.8081 43.8163 12.3868 43.8163C12.134 43.8163 11.9655 43.7725 11.8813 43.6849C11.8251 43.6265 10.4489 40.5301 7.75277 34.3958L3.70851 25.1944L3.03447 25.6764C2.61319 26.0269 2.17787 26.3774 1.72851 26.728C1.27915 27.0785 1.02638 27.2538 0.970213 27.2538Z" fill="#66FF7F"/>
<path d="M57 2.62898H32.903V1.90735e-06H57V2.62898Z" fill="#66FF7F"/>
<path d="M36.4545 19.5455L40.6364 26.6818L44.8182 19.5455H47.9091L42.2727 28.2727L47.9091 37H44.8182L40.6364 30.2273L36.4545 37H33.3636L38.9091 28.2727L33.3636 19.5455H36.4545Z" fill="#66FF7F"/>
</svg>
